<?xml version="1.0" encoding="utf-8"?>
<!-- Generator: Adobe Illustrator 24.1.1, SVG Export Plug-In . SVG Version: 6.00 Build 0)  -->
<svg version="1.1" id="Camada_1" xmlns="http://www.w3.org/2000/svg" xmlns:xlink="http://www.w3.org/1999/xlink" x="0px" y="0px"
	 viewBox="0 0 128 128" style="enable-background:new 0 0 128 128;" xml:space="preserve">
<style type="text/css">
	.st0{fill:#006837;}
	.st1{fill:#FBD362;}
	.st2{fill:#EAEFF1;}
	.st3{fill:#C1272D;}
</style>
<g>
	<path class="st0" d="M103.71,128H24.29C10.88,128,0,117.12,0,103.71V24.29C0,10.88,10.88,0,24.29,0h79.42
		C117.12,0,128,10.88,128,24.29v79.42C128,117.12,117.12,128,103.71,128z"/>
	<g>
		<g>
			<path class="st1" d="M106.8,39.08c0,19.22,0,38.45,0,57.67c-0.05,0.06-0.13,0.12-0.15,0.19c-0.59,2.33-2.68,3.83-5.58,3.83
				c-24.73-0.04-49.45-0.02-74.18-0.02c-3.67,0-5.67-2.01-5.67-5.69c0-15.37,0.02-30.74-0.01-46.12c-0.01-4.18,0.5-8.27,1.69-12.27
				c0.62-2.07,1.92-3.09,4.1-3.09c6.54,0,13.09,0,19.63-0.01c1.56,0,2.78,0.56,3.7,1.86c1.35,1.91,2.76,3.77,4.15,5.65
				c-0.28,0-0.56,0.01-0.83,0.01c-7.91,0-15.81,0.01-23.72-0.01c-0.68,0-0.92,0.18-0.9,0.88c0.05,1.75,0.06,3.51,0,5.26
				c-0.03,0.81,0.22,1.03,1.03,1.03c5.48-0.03,10.97-0.02,16.45-0.02c8.27,0,16.54,0,24.8,0c1.79,0,3.32-0.48,4.15-2.21
				c0.79-1.63,1.49-3.29,2.23-4.94c0.34-0.73,0.72-1.44,1.03-2.19c0.82-1.99,2.29-2.85,4.44-2.83c6.26,0.04,12.52,0.06,18.78-0.01
				C104.29,36.02,106,36.75,106.8,39.08z"/>
			<path class="st2" d="M54.47,41.08c7.74,0,15.48,0,23.22,0.01c-0.74,1.65-1.45,3.31-2.23,4.94c-0.83,1.73-2.36,2.21-4.15,2.21
				c-8.27-0.01-16.54,0-24.8,0c-5.48,0-10.97-0.02-16.45,0.02c-0.8,0-1.05-0.22-1.03-1.03c0.06-1.75,0.05-3.51,0-5.26
				c-0.02-0.71,0.21-0.88,0.9-0.88c7.91,0.02,15.81,0.01,23.72,0.01C53.92,41.09,54.2,41.08,54.47,41.08z"/>
		</g>
		<g>
			<path class="st3" d="M34.61,87.07c19.58,0,39.03,0,58.61,0c0-0.32,0-0.62,0-0.92c0-9.4,0-18.79,0-28.19
				c0-2.14,1.44-3.8,3.44-3.99c2.24-0.22,4.17,1.51,4.19,3.8c0.03,2.87,0.01,5.73,0.01,8.6c0,7.17,0,14.33,0,21.5
				c0,4.2-2.66,6.87-6.85,6.87c-20.06,0-40.13,0-60.19,0c-4.2,0-6.85-2.66-6.85-6.86c0-9.98-0.01-19.96,0-29.94
				c0-2.73,2.45-4.58,4.97-3.8c1.63,0.51,2.67,1.98,2.67,3.83c0.01,5.65,0,11.31,0,16.96c0,3.74,0,7.49,0,11.23
				C34.61,86.43,34.61,86.71,34.61,87.07z"/>
			<path class="st3" d="M60.1,66.34c0-0.47,0-0.76,0-1.06c0-13.46,0-26.92,0-40.38c0-2.37,1.63-4.1,3.84-4.09
				c1.99,0.01,3.67,1.58,3.79,3.57c0.02,0.32,0.01,0.64,0.01,0.96c0,13.33,0,26.65,0,39.98c0,0.29,0,0.57,0,1
				c0.29-0.26,0.48-0.42,0.66-0.6c2.4-2.4,4.78-4.83,7.22-7.2c2.11-2.06,5.52-1.22,6.35,1.54c0.46,1.54,0.04,2.87-1.09,4
				c-2.52,2.51-5.03,5.03-7.55,7.54c-2.12,2.12-4.24,4.24-6.36,6.36C65,79.93,62.85,79.94,60.91,78c-4.66-4.65-9.32-9.3-13.96-13.97
				c-2.16-2.18-1.41-5.61,1.42-6.47c1.53-0.47,2.87-0.05,4,1.08c2.34,2.35,4.69,4.69,7.04,7.04C59.58,65.87,59.78,66.04,60.1,66.34z
				"/>
		</g>
	</g>
</g>
</svg>
